<svg id="Layer_1" data-name="Layer 1" xmlns="http://www.w3.org/2000/svg" viewBox="0 0 475.98 100.86"><defs><style>.cls-1{fill:#161632;}</style></defs><path class="cls-1" d="M171.59,33.07v49.3H164.8L139.19,47.16V82.37h-7.93V33.07h7.31l25.09,34.62V33.07Z" transform="translate(-19.21 -19.72)"/><path class="cls-1" d="M180.11,63.35c0-11.5,8.71-19.94,20.34-19.94s20.33,8.49,20.33,19.94-8.72,19.94-20.33,19.94S180.11,74.78,180.11,63.35Zm32.72,0c0-7.28-5.18-12.48-12.38-12.48s-12.38,5.2-12.38,12.48,5.18,12.48,12.38,12.48S212.83,70.63,212.83,63.35Z" transform="translate(-19.21 -19.72)"/><path class="cls-1" d="M250.77,44.12v7.39h-4.12c-6.47,0-9.7,3.69-9.7,10.58V82.37h-7.81v-38h5.28l1.33,5.2c2.72-3.61,6.45-5.41,11.64-5.41Z" transform="translate(-19.21 -19.72)"/><path class="cls-1" d="M293.16,30.7V82.37h-5.91l-1-4.32a19.06,19.06,0,0,1-13.42,5.26c-11.5,0-19.77-8.56-19.77-20s8.27-19.94,19.77-19.94a19.27,19.27,0,0,1,12.53,4.42V30.7Zm-7.27,32.65a12.44,12.44,0,1,0-24.87,0,12.44,12.44,0,1,0,24.87,0Z" transform="translate(-19.21 -19.72)"/><path class="cls-1" d="M301.53,63.31a19.48,19.48,0,0,1,20-19.9c9.4,0,16.74,5.76,18.86,14.48h-7.75a11.91,11.91,0,0,0-11.13-7c-6.85,0-12,5.41-12,12.46s5.19,12.5,12,12.5a11.78,11.78,0,0,0,11.08-7.31h7.89c-2.09,8.88-9.58,14.77-19,14.77A19.55,19.55,0,0,1,301.53,63.31Z" transform="translate(-19.21 -19.72)"/><path class="cls-1" d="M348.15,30.7H356V82.37h-7.82Z" transform="translate(-19.21 -19.72)"/><path class="cls-1" d="M364.31,63.35c0-11.5,8.7-19.94,20.34-19.94S405,51.9,405,63.35s-8.72,19.94-20.33,19.94S364.31,74.78,364.31,63.35Zm32.71,0c0-7.28-5.18-12.48-12.37-12.48s-12.38,5.2-12.38,12.48,5.18,12.48,12.38,12.48S397,70.63,397,63.35Z" transform="translate(-19.21 -19.72)"/><path class="cls-1" d="M412.74,66.31v-22h7.82V65.21c0,6.61,3.61,10.62,9.48,10.62s9.46-4.08,9.46-10.62V44.33h7.82v22c0,10.23-6.79,17-17.28,17S412.74,76.54,412.74,66.31Z" transform="translate(-19.21 -19.72)"/><path class="cls-1" d="M495.19,30.7V82.37h-5.91l-1-4.32a19.07,19.07,0,0,1-13.43,5.26c-11.5,0-19.77-8.56-19.77-20s8.27-19.94,19.77-19.94a19.26,19.26,0,0,1,12.53,4.42V30.7Zm-7.27,32.65a12.44,12.44,0,1,0-24.87,0,12.44,12.44,0,1,0,24.87,0Z" transform="translate(-19.21 -19.72)"/><path class="cls-1" d="M109,59.62c0-.16,0-.32-.05-.47a18.13,18.13,0,0,0-.27-1.82c0-.15-.07-.3-.11-.45-.1-.47-.22-.93-.35-1.38-.06-.19-.11-.39-.17-.58-.17-.53-.36-1-.57-1.55l-.27-.62c-.17-.38-.36-.76-.55-1.13-.09-.17-.17-.35-.27-.52-.26-.48-.55-1-.85-1.4l-.36-.54c-.3-.42-.6-.83-.92-1.23l-.27-.32c-.34-.41-.71-.8-1.08-1.19l-.35-.35c-.43-.42-.87-.83-1.33-1.21l-.18-.14c-.44-.36-.89-.7-1.36-1l-.3-.21c-.08-.05-.16-.12-.25-.17A25.19,25.19,0,0,0,55.67,27.64a21.07,21.07,0,0,0-3.46-.29A21.36,21.36,0,0,0,31.4,44.06a20.55,20.55,0,0,0-12.18,19.5c.4,11.11,9.88,19.75,21,19.75H63.89a8.81,8.81,0,0,0-8.81-8.81h-15A11.94,11.94,0,0,1,28,63,11.7,11.7,0,0,1,39.71,51.11H40A12.48,12.48,0,0,1,59,38.2,16.41,16.41,0,0,1,90.4,44.94a16.16,16.16,0,0,1-.51,4h0l.68.17.49.12.63.22c.17.06.33.11.49.18l.6.26.48.23.55.3.47.29c.17.11.35.22.51.34s.31.22.46.33l.47.37.45.41.4.38c.26.26.51.54.75.83a4.08,4.08,0,0,1,.25.33c.16.2.32.4.46.61s.17.27.26.41.25.39.36.59l.24.45c.1.2.2.41.29.62s.14.31.2.47.17.43.24.65.11.32.15.48.13.47.19.71.07.31.1.47.09.53.12.81,0,.27.06.4c0,.41.06.83.06,1.25a11.43,11.43,0,0,1-.07,1.32,12.38,12.38,0,0,1-.51,2.52,12.51,12.51,0,0,1-.7,1.73,12.34,12.34,0,0,1-1.75,2.73,12,12,0,0,1-1.67,1.67,12.41,12.41,0,0,1-1,.75,13.2,13.2,0,0,1-2.19,1.19,12,12,0,0,1-1.19.43,13.1,13.1,0,0,1-2.52.52q-.66.06-1.32.06A12.92,12.92,0,0,1,74.45,61.58h5.28a.16.16,0,0,0,.14-.25l-9-15.61a.94.94,0,0,0-1.62,0l-9,15.61a.16.16,0,0,0,.14.25h5.28a21.73,21.73,0,0,0,43.46,0C109.11,60.92,109.07,60.27,109,59.62Z" transform="translate(-19.21 -19.72)"/><path class="cls-1" d="M140.62,116a1.82,1.82,0,0,1-1.49-.56,2.68,2.68,0,0,1-.56-1.38h-.12a3.06,3.06,0,0,1-1.29,1.66,4,4,0,0,1-2.15.56,4.21,4.21,0,0,1-2.95-1,3.43,3.43,0,0,1-1.05-2.64,3,3,0,0,1,1.24-2.58,6.47,6.47,0,0,1,3.84-.91h2.36V108a2.57,2.57,0,0,0-.69-1.94,3,3,0,0,0-2.13-.67,3.21,3.21,0,0,0-1.81.48,4,4,0,0,0-1.21,1.29l-1.11-1a4.26,4.26,0,0,1,1.54-1.66,5.79,5.79,0,0,1,6.06.38,3.74,3.74,0,0,1,1.2,3v6.55h1.36V116Zm-5.31-1.29a4.64,4.64,0,0,0,1.27-.17,3,3,0,0,0,1-.46,2.35,2.35,0,0,0,.65-.69,1.7,1.7,0,0,0,.23-.86v-2H136a4.44,4.44,0,0,0-2.32.46,1.49,1.49,0,0,0-.73,1.34v.49a1.6,1.6,0,0,0,.64,1.36A2.77,2.77,0,0,0,135.31,114.68Z" transform="translate(-19.21 -19.72)"/><path class="cls-1" d="M144.29,116V104.05h1.85V106h.09a3.93,3.93,0,0,1,1.24-1.6,3.46,3.46,0,0,1,2.14-.6,3.75,3.75,0,0,1,2.92,1.19,4.84,4.84,0,0,1,1.07,3.36V116h-1.84v-7.34c0-2.15-.91-3.22-2.71-3.22a4.18,4.18,0,0,0-1.07.14,3,3,0,0,0-.94.42,2.21,2.21,0,0,0-.66.7,2.07,2.07,0,0,0-.24,1V116Z" transform="translate(-19.21 -19.72)"/><path class="cls-1" d="M162.29,116v-1.62h2.26V101.46h-2.26V99.85h6.47v1.61h-2.27v12.89h2.27V116Z" transform="translate(-19.21 -19.72)"/><path class="cls-1" d="M172.29,99.85h6.63a4.25,4.25,0,0,1,3.15,1.13,4,4,0,0,1,1.15,3,4.08,4.08,0,0,1-.26,1.53,3.28,3.28,0,0,1-.64,1,2.68,2.68,0,0,1-.86.6,3.69,3.69,0,0,1-.85.26v.14a3.3,3.3,0,0,1,2,.89,3.7,3.7,0,0,1,1.15,2.85,5.28,5.28,0,0,1-.31,1.85,4.63,4.63,0,0,1-.87,1.48,4.21,4.21,0,0,1-1.31,1,3.88,3.88,0,0,1-1.67.36h-7.32Zm1.94,7h4.46a2.58,2.58,0,0,0,1.8-.58,2.11,2.11,0,0,0,.65-1.66v-.78a2.13,2.13,0,0,0-.65-1.67,2.63,2.63,0,0,0-1.8-.58h-4.46Zm0,7.44H179a2.85,2.85,0,0,0,2-.64,2.37,2.37,0,0,0,.71-1.86V111a2.37,2.37,0,0,0-.71-1.86,2.9,2.9,0,0,0-2-.64h-4.78Z" transform="translate(-19.21 -19.72)"/><path class="cls-1" d="M199.94,102.39h-.11l-1.37,2.7-3.86,7-3.85-7-1.37-2.7h-.11V116h-1.9V99.85H190l4.62,8.68h.12l4.64-8.68h2.5V116h-1.9Z" transform="translate(-19.21 -19.72)"/><path class="cls-1" d="M217.27,116.25a5.86,5.86,0,0,1-4.79-2.09q-1.71-2.1-1.71-6.16a10,10,0,0,1,1.71-6.25,5.75,5.75,0,0,1,4.79-2.18,5.64,5.64,0,0,1,5.54,3.51l-1.57,1a4.43,4.43,0,0,0-1.48-2,4,4,0,0,0-2.49-.75,4.24,4.24,0,0,0-1.86.39A3.8,3.8,0,0,0,214,102.8a5.12,5.12,0,0,0-.87,1.73,8,8,0,0,0-.3,2.26v2.42a6,6,0,0,0,1.16,3.91,4,4,0,0,0,3.26,1.42,4.11,4.11,0,0,0,2.58-.8,4.63,4.63,0,0,0,1.53-2.11l1.55,1a6.2,6.2,0,0,1-2.2,2.68A6.07,6.07,0,0,1,217.27,116.25Z" transform="translate(-19.21 -19.72)"/><path class="cls-1" d="M230.25,116.25a5.47,5.47,0,0,1-2.2-.44,4.58,4.58,0,0,1-1.69-1.26,5.89,5.89,0,0,1-1.1-2,8.63,8.63,0,0,1,0-5.13,5.94,5.94,0,0,1,1.1-2,4.58,4.58,0,0,1,1.69-1.26,5.47,5.47,0,0,1,2.2-.44,5.31,5.31,0,0,1,2.18.44,4.78,4.78,0,0,1,1.7,1.26,5.79,5.79,0,0,1,1.11,2,8.63,8.63,0,0,1,0,5.13,5.74,5.74,0,0,1-1.11,2,4.78,4.78,0,0,1-1.7,1.26A5.31,5.31,0,0,1,230.25,116.25Zm0-1.64a3.37,3.37,0,0,0,2.45-.93,3.76,3.76,0,0,0,.94-2.82v-1.71a3.75,3.75,0,0,0-.94-2.81,3.69,3.69,0,0,0-4.9,0,3.76,3.76,0,0,0-1,2.81v1.71a3.77,3.77,0,0,0,1,2.82A3.35,3.35,0,0,0,230.25,114.61Z" transform="translate(-19.21 -19.72)"/><path class="cls-1" d="M238.68,116V104.05h1.85V106h.09a7,7,0,0,1,.47-.86,3.09,3.09,0,0,1,.65-.7,3,3,0,0,1,.89-.47,3.9,3.9,0,0,1,1.2-.17,4.36,4.36,0,0,1,2.17.56,3.41,3.41,0,0,1,1.48,1.85h.05a3.65,3.65,0,0,1,1.21-1.69,3.72,3.72,0,0,1,2.41-.72A3.6,3.6,0,0,1,254,105a5,5,0,0,1,1,3.36V116h-1.84v-7.34a3.89,3.89,0,0,0-.63-2.41,2.34,2.34,0,0,0-2-.81,4.11,4.11,0,0,0-1.06.14,2.65,2.65,0,0,0-.88.42,2,2,0,0,0-.63.7,2.18,2.18,0,0,0-.23,1V116h-1.85v-7.34a4,4,0,0,0-.62-2.41,2.3,2.3,0,0,0-1.94-.81,4.05,4.05,0,0,0-1.06.14,2.66,2.66,0,0,0-.9.42,2,2,0,0,0-.64.7,2.07,2.07,0,0,0-.24,1V116Z" transform="translate(-19.21 -19.72)"/><path class="cls-1" d="M258.85,104.05h1.84V106h.1a3.27,3.27,0,0,1,1.35-1.66,4,4,0,0,1,2.13-.54,4.56,4.56,0,0,1,2,.44,4.32,4.32,0,0,1,1.54,1.25,5.71,5.71,0,0,1,1,2,10.33,10.33,0,0,1,0,5.18,5.71,5.71,0,0,1-1,2,4.32,4.32,0,0,1-1.54,1.25,4.56,4.56,0,0,1-2,.44,3.61,3.61,0,0,1-3.48-2.2h-.1v6.54h-1.84Zm4.92,10.56a3.18,3.18,0,0,0,2.47-1,3.7,3.7,0,0,0,.9-2.59v-2a3.7,3.7,0,0,0-.9-2.59,3.18,3.18,0,0,0-2.47-1,3.85,3.85,0,0,0-1.19.18,3.24,3.24,0,0,0-1,.47,2.38,2.38,0,0,0-.65.73,1.79,1.79,0,0,0-.25.92v4.46a2,2,0,0,0,.25,1,2.41,2.41,0,0,0,.65.77,2.84,2.84,0,0,0,1,.47A4.17,4.17,0,0,0,263.77,114.61Z" transform="translate(-19.21 -19.72)"/><path class="cls-1" d="M280.91,116a1.8,1.8,0,0,1-1.49-.56,2.78,2.78,0,0,1-.57-1.38h-.12a3.06,3.06,0,0,1-1.29,1.66,4,4,0,0,1-2.15.56,4.2,4.2,0,0,1-2.94-1,3.43,3.43,0,0,1-1.05-2.64,3,3,0,0,1,1.23-2.58,6.52,6.52,0,0,1,3.85-.91h2.35V108A2.57,2.57,0,0,0,278,106a2.93,2.93,0,0,0-2.12-.67,3.24,3.24,0,0,0-1.82.48,4.05,4.05,0,0,0-1.21,1.29l-1.11-1a4.22,4.22,0,0,1,1.55-1.66,5.77,5.77,0,0,1,6.05.38,3.74,3.74,0,0,1,1.2,3v6.55h1.36V116Zm-5.32-1.29a4.59,4.59,0,0,0,1.27-.17,3,3,0,0,0,1-.46,2.31,2.31,0,0,0,.64-.69,1.61,1.61,0,0,0,.23-.86v-2h-2.44A4.48,4.48,0,0,0,274,111a1.5,1.5,0,0,0-.72,1.34v.49a1.62,1.62,0,0,0,.63,1.36A2.79,2.79,0,0,0,275.59,114.68Z" transform="translate(-19.21 -19.72)"/><path class="cls-1" d="M284.58,116V104.05h1.85V106h.09a3.83,3.83,0,0,1,1.23-1.6,3.5,3.5,0,0,1,2.14-.6,3.74,3.74,0,0,1,2.92,1.19,4.85,4.85,0,0,1,1.08,3.36V116H292v-7.34c0-2.15-.9-3.22-2.7-3.22a4.32,4.32,0,0,0-1.08.14,2.92,2.92,0,0,0-.93.42,2,2,0,0,0-.66.7,2.07,2.07,0,0,0-.24,1V116Z" transform="translate(-19.21 -19.72)"/><path class="cls-1" d="M304.86,104.05h1.82l-5.33,14.69a6.27,6.27,0,0,1-.42.89,1.77,1.77,0,0,1-.51.57,2.14,2.14,0,0,1-.75.3,5.63,5.63,0,0,1-1.09.09h-.95V119h1.87l.9-2.54-4.46-12.36h1.85l2.87,8.09.55,1.94h.12l.64-1.94Z" transform="translate(-19.21 -19.72)"/></svg>